<?xml version="1.0" standalone="no"?>
<!DOCTYPE svg PUBLIC "-//W3C//DTD SVG 20010904//EN"
 "http://www.w3.org/TR/2001/REC-SVG-20010904/DTD/svg10.dtd">
<svg version="1.0" xmlns="http://www.w3.org/2000/svg"
 width="512.000000pt" height="512.000000pt" viewBox="0 0 512.000000 512.000000"
 preserveAspectRatio="xMidYMid meet">
<metadata>
Created by potrace 1.11, written by Peter Selinger 2001-2013
</metadata>
<g transform="translate(0.000000,512.000000) scale(0.100000,-0.100000)"
fill="#000000" stroke="none">
<path d="M1230 2690 l0 -1230 163 2 162 3 3 418 2 417 229 0 228 0 73 -132
c41 -73 79 -137 86 -143 7 -5 30 -44 51 -85 22 -41 85 -158 142 -260 56 -102
105 -192 110 -200 7 -12 42 -15 200 -18 170 -2 191 -1 191 14 0 8 -55 111
-123 227 -67 117 -133 232 -146 257 -13 25 -29 50 -36 55 -16 14 -195 323
-195 338 0 7 30 27 66 45 211 104 340 243 412 445 96 266 53 527 -127 771 -35
48 -130 137 -156 147 -6 2 -42 23 -80 46 -82 49 -195 89 -291 103 -38 5 -270
10 -516 10 l-448 0 0 -1230z m930 890 c161 -25 334 -166 381 -310 7 -19 16
-38 22 -41 15 -10 15 -211 -1 -217 -6 -2 -12 -10 -12 -18 0 -62 -129 -233
-217 -287 -107 -67 -127 -70 -465 -75 l-308 -4 0 481 0 481 268 0 c147 0 296
-5 332 -10z"/>
<path d="M3910 3846 c0 -13 -164 -482 -170 -486 -4 -3 -30 -72 -58 -155 -28
-82 -96 -283 -152 -445 -56 -162 -117 -342 -136 -399 -18 -57 -37 -107 -42
-110 -5 -3 -39 -96 -77 -206 -37 -110 -93 -274 -125 -365 -31 -91 -60 -177
-64 -192 l-6 -28 164 0 c162 0 164 0 169 23 2 12 66 200 142 417 75 217 146
424 157 460 11 36 24 67 28 70 7 5 42 103 193 545 156 457 199 580 206 585 4
3 26 63 50 134 23 71 45 135 48 142 4 12 -25 14 -161 14 -91 0 -166 -2 -166
-4z"/>
<path d="M705 2875 c-60 -46 -119 -92 -130 -102 -33 -30 -345 -272 -373 -291
-43 -27 -165 -125 -184 -147 -14 -16 -17 -41 -18 -125 l0 -105 99 -78 c55 -42
104 -77 110 -77 5 0 16 -9 23 -19 13 -19 236 -193 449 -351 55 -41 105 -83
110 -92 11 -20 39 -24 39 -7 0 12 135 187 159 206 11 9 12 12 3 13 -13 0 -282
208 -282 218 -1 4 -26 25 -56 47 -105 75 -326 247 -322 250 2 1 37 29 78 62
41 33 95 79 120 101 25 23 49 42 53 42 5 0 89 63 187 140 99 76 188 145 200
152 24 15 25 23 4 46 -8 9 -47 59 -85 110 -39 50 -71 92 -72 92 -1 0 -51 -38
-112 -85z"/>
<path d="M4248 2878 c-70 -92 -98 -133 -98 -146 0 -10 325 -266 387 -305 21
-13 54 -39 73 -57 19 -18 69 -60 110 -93 41 -33 76 -61 78 -62 4 -4 -266 -215
-274 -215 -7 0 -98 -73 -102 -82 -6 -14 -272 -218 -284 -218 -7 0 -6 -5 4 -12
24 -20 158 -195 158 -207 0 -18 28 -13 39 7 5 9 55 51 111 92 191 141 434 331
448 351 7 10 18 19 23 19 6 0 53 33 104 72 l94 73 1 116 c0 135 4 128 -134
229 -150 110 -421 323 -434 341 -7 11 -18 19 -24 19 -5 0 -51 32 -101 72 -51
39 -97 75 -103 80 -8 6 -33 -18 -76 -74z"/>
</g>
</svg>
