<svg xmlns="http://www.w3.org/2000/svg" viewBox="0 0 245.77 258.45"><title>icon-start</title><path d="M351,320.92V456.45a5.45,5.45,0,0,0,0,2c.87,2.07,1.37,4.75,3,6,4.37,3.41,11.57-.4,12-6,.05-.67,0-1.34,0-2V321H565.71V456.42a6.38,6.38,0,0,0,0,2.23c.8,2,1.31,4.77,2.82,5.58,2,1.08,4.89.76,7.39.7.87,0,1.85-.93,2.56-1.64,1.8-1.82,2.19-4.12,2.19-6.63q-.06-66.41,0-132.81V321c6.46-1.09,8.08-3.13,8-9.31-.12-22.71-.07-45.43,0-68.15,0-5.09-2.17-6.91-6.31-8.1-.56-.16-1.34-.69-1.41-1.15a17.23,17.23,0,0,1-.17-4.42c0-.34,1.28-.44,1.76-.88a10.27,10.27,0,0,0,2.63-2.85c2.23-4.58,1.4-9.47.72-14.18-.29-2-2.16-4.32-4.36-4.5-4.78-.37-9.63-.08-14.44,0-4,.05-6.81,2.5-7,6.52a63.58,63.58,0,0,0,.15,9.46c.23,2.6,1.43,4.75,4.26,5.58a1.92,1.92,0,0,1,1.16,1.27c.14,1.69.05,3.4.05,5H366a48.06,48.06,0,0,1,.06-4.83,2.08,2.08,0,0,1,1.21-1.48c3-.61,3.92-3,4.17-5.38a59.89,59.89,0,0,0,.08-10.2,6.32,6.32,0,0,0-6.58-6c-4.46-.05-8.91,0-13.36,0-2.64,0-5.83,2.56-6,5.25a93,93,0,0,0,0,10.95,5.08,5.08,0,0,0,2.3,4.33c3.36,2.26,3.18,2.5,3.16,4.64,0,1.53-.22,2.62-2.18,3.05-4,.89-5.83,3.18-5.83,7.63q0,34.57,0,69.15c0,5.64,1.72,7,6.83,8.35A10,10,0,0,0,351,320.92Z" transform="translate(-342.96 -207.25)" fill="#fff"/><path d="M351,320.92a10,10,0,0,1-1.19-.14c-5.11-1.33-6.85-2.71-6.83-8.35q.1-34.57,0-69.15c0-4.45,1.84-6.74,5.83-7.63,2-.43,2.16-1.52,2.18-3.05,0-2.14.2-2.38-3.16-4.64a5.08,5.08,0,0,1-2.3-4.33,93,93,0,0,1,0-10.95c.17-2.69,3.36-5.24,6-5.25,4.45,0,8.9-.05,13.36,0a6.32,6.32,0,0,1,6.58,6,59.89,59.89,0,0,1-.08,10.2c-.25,2.42-1.18,4.77-4.17,5.38a2.08,2.08,0,0,0-1.21,1.48,48.06,48.06,0,0,0-.06,4.83H565.7c0-1.64.09-3.35-.05-5a1.92,1.92,0,0,0-1.16-1.27c-2.83-.83-4-3-4.26-5.58a63.58,63.58,0,0,1-.15-9.46c.23-4,3-6.47,7-6.52,4.81-.06,9.66-.35,14.44,0,2.2.18,4.07,2.49,4.36,4.5.68,4.71,1.51,9.6-.72,14.18a10.27,10.27,0,0,1-2.63,2.85c-.48.44-1.72.54-1.76.88a17.23,17.23,0,0,0,.17,4.42c.07.46.85,1,1.41,1.15,4.14,1.19,6.32,3,6.31,8.1,0,22.72-.09,45.44,0,68.15,0,6.18-1.58,8.22-8,9.31v2.88q0,66.4,0,132.81c0,2.51-.39,4.81-2.19,6.63-.71.71-1.69,1.62-2.56,1.64-2.5.06-5.36.38-7.39-.7-1.51-.81-2-3.61-2.82-5.58a6.38,6.38,0,0,1,0-2.23V321H366V456.39c0,.66,0,1.33,0,2-.4,5.62-7.6,9.43-12,6-1.59-1.23-2.09-3.91-3-6a5.45,5.45,0,0,1,0-2V320.92Zm.67-.44v134c0,1.24,0,2.5,0,3.74a6.38,6.38,0,0,0,6.35,6.37c3.92.14,6.63-2,7.15-5.75a29.36,29.36,0,0,0,.12-4V320.13H566.37V454.81a31.18,31.18,0,0,0,.11,4c.51,3.79,3.19,5.92,7.12,5.79a6.38,6.38,0,0,0,6.39-6.33c.08-1.24,0-2.49,0-3.74V320.26l2.23-.33c3.6-.52,5.84-2.9,5.84-6.58q.06-35.33,0-70.64a6.27,6.27,0,0,0-5.47-6.42c-.79-.16-1.59-.25-2.6-.41,0-1.83.05-3.57,0-5.3a2,2,0,0,1,1.56-2.31,5.88,5.88,0,0,0,4.14-5.89c0-2.67,0-5.33,0-8a6.2,6.2,0,0,0-6.48-6.41c-4-.06-8,0-12,0s-6.47,2.64-6.54,6.62c0,2.41,0,4.82,0,7.24a6.41,6.41,0,0,0,4.34,6.58c.52.21,1.25.76,1.28,1.2.13,2.12.06,4.24.06,6.36H365.3c0-1.79.08-3.44,0-5.07a2.3,2.3,0,0,1,1.78-2.74,5.69,5.69,0,0,0,3.9-5.55c.08-2.82.09-5.66,0-8.48a6.16,6.16,0,0,0-6-6.14c-4.32-.1-8.65-.11-13,0a6.11,6.11,0,0,0-6,6.1c-.08,2.66,0,5.33,0,8,0,3.12,1.53,5.11,4.32,6.34.55.24,1.28.87,1.31,1.36.15,2,.06,4.1.06,6.09-6.57,1-8.08,2.71-8.08,9q0,33.83,0,67.64c0,2.78.73,5.18,3.28,6.52A25,25,0,0,0,351.65,320.48Z" transform="translate(-342.96 -207.25)"/><path d="M351.65,320.48a25,25,0,0,1-4.83-1.4c-2.55-1.34-3.28-3.74-3.28-6.52q0-33.82,0-67.64c0-6.33,1.51-8.08,8.08-9,0-2,.09-4-.06-6.09,0-.49-.76-1.12-1.31-1.36-2.79-1.23-4.34-3.22-4.32-6.34,0-2.66-.05-5.33,0-8a6.11,6.11,0,0,1,6-6.1c4.33-.11,8.66-.1,13,0a6.16,6.16,0,0,1,6,6.14c.08,2.82.07,5.66,0,8.48a5.69,5.69,0,0,1-3.9,5.55,2.3,2.3,0,0,0-1.78,2.74c.1,1.63,0,3.28,0,5.07H566.36c0-2.12.07-4.24-.06-6.36,0-.44-.76-1-1.28-1.2a6.41,6.41,0,0,1-4.34-6.58c0-2.42,0-4.83,0-7.24.07-4,2.62-6.58,6.54-6.62s8-.06,12,0a6.2,6.2,0,0,1,6.48,6.41c.06,2.66,0,5.32,0,8a5.88,5.88,0,0,1-4.14,5.89,2,2,0,0,0-1.56,2.31c.06,1.73,0,3.47,0,5.3,1,.16,1.81.25,2.6.41a6.27,6.27,0,0,1,5.47,6.42q.06,35.32,0,70.64c0,3.68-2.24,6.06-5.84,6.58l-2.23.33V454.52c0,1.25.05,2.5,0,3.74a6.38,6.38,0,0,1-6.39,6.33c-3.93.13-6.61-2-7.12-5.79a31.18,31.18,0,0,1-.11-4V320.13H365.3V454.86a29.36,29.36,0,0,1-.12,4c-.52,3.77-3.23,5.89-7.15,5.75a6.38,6.38,0,0,1-6.35-6.37c-.07-1.24,0-2.5,0-3.74v-134ZM501,279.05l1.35-.77c4.65-2.56,6.61-6.38,5.92-11.55-.59-4.37-3.51-7.38-8.61-8.47-5.27-1.12-10.56-.64-15.95.19v39.66h5.16V280.84H493c4.81.05,7,1.65,8.31,6.25.62,2.16,1,4.38,1.61,6.53,1.68,5.86.63,4.56,6.2,4.67.12,0,.25-.16.36-.23-1-3.95-2-7.88-3-11.81A10.27,10.27,0,0,0,501,279.05Zm-23.59,19.27a11.21,11.21,0,0,0-.28-1.46c-4.23-12.42-8.52-24.81-12.65-37.27-.72-2.14-2.16-1.69-3.54-1.64s-3.27-.76-4,1.68c-1.75,5.63-3.74,11.18-5.64,16.76L443.9,298.2a21.06,21.06,0,0,1,2.2.14c2.35.4,3.59-.49,4.16-2.89.63-2.65,1.76-5.19,2.49-7.83.43-1.59,1.26-2.06,2.84-2,3.32.11,6.66.14,10,0,1.76-.08,2.47.6,2.95,2.21.89,3,2,6,3.06,9a2.57,2.57,0,0,0,1.55,1.48A27.5,27.5,0,0,0,477.42,298.32Zm-64.55-39.11a19.29,19.29,0,0,0-14.05-1.13c-4.32,1.31-7.2,4.16-7.83,8.78s1.58,8.19,5.59,10.52c1.65.95,3.47,1.59,5.18,2.43a35.85,35.85,0,0,1,4.82,2.58c2.26,1.6,2.9,4,2.41,6.64a5.82,5.82,0,0,1-4.43,4.88,12.65,12.65,0,0,1-4.9.53c-2.81-.39-5.56-1.23-8.35-1.88-1.61,4.23-1.66,4.43,2.8,5.41a30.5,30.5,0,0,0,8.87.73c7.48-.61,11.88-5.59,11.47-12.41-.29-4.61-3.06-7.41-6.9-9.35-2.59-1.31-5.34-2.31-7.89-3.7-2.82-1.54-3.88-3.9-3.35-6.61a5.66,5.66,0,0,1,5.63-4.77c3.15-.08,6.31.54,9.76.88Zm111.21,3.17v35.8h5.28V262.26h12.13v-4.2H511.94v4.32Zm-89.43,35.87V262.33H446.7v-4.24H417.11v4.32h12.27v35.84Z" transform="translate(-342.96 -207.25)" fill="#fff"/><path d="M501,279.05a10.27,10.27,0,0,1,5.47,7.2c1,3.93,2,7.86,3,11.81-.11.07-.24.23-.36.23-5.57-.11-4.52,1.19-6.2-4.67-.62-2.15-1-4.37-1.61-6.53-1.32-4.6-3.5-6.2-8.31-6.25h-4.15v17.27h-5.16V258.45c5.39-.83,10.68-1.31,15.95-.19,5.1,1.09,8,4.1,8.61,8.47.69,5.17-1.27,9-5.92,11.55Zm-12.22-2c3.2-.26,6.11-.19,8.89-.78a6.94,6.94,0,0,0,5.54-7.27,6.68,6.68,0,0,0-5.9-6.93,33.56,33.56,0,0,0-7.16-.12c-.48,0-1.29,1-1.31,1.56C488.74,267.83,488.79,272.14,488.79,277.07Z" transform="translate(-342.96 -207.25)"/><path d="M477.42,298.32a27.5,27.5,0,0,1-4.29-.07,2.57,2.57,0,0,1-1.55-1.48c-1.11-2.95-2.17-5.93-3.06-9-.48-1.61-1.19-2.29-2.95-2.21-3.32.15-6.66.12-10,0-1.58-.05-2.41.42-2.84,2-.73,2.64-1.86,5.18-2.49,7.83-.57,2.4-1.81,3.29-4.16,2.89a21.06,21.06,0,0,0-2.2-.14l7.39-21.81c1.9-5.58,3.89-11.13,5.64-16.76.75-2.44,2.52-1.63,4-1.68s2.82-.5,3.54,1.64c4.13,12.46,8.42,24.85,12.65,37.27A11.21,11.21,0,0,1,477.42,298.32Zm-10.88-16.94-6-18.23c-2,6.17-3.9,12.11-5.87,18.23Z" transform="translate(-342.96 -207.25)"/><path d="M412.87,259.21l-1.17,3.53c-3.45-.34-6.61-1-9.76-.88a5.66,5.66,0,0,0-5.63,4.77c-.53,2.71.53,5.07,3.35,6.61,2.55,1.39,5.3,2.39,7.89,3.7,3.84,1.94,6.61,4.74,6.9,9.35.41,6.82-4,11.8-11.47,12.41a30.5,30.5,0,0,1-8.87-.73c-4.46-1-4.41-1.18-2.8-5.41,2.79.65,5.54,1.49,8.35,1.88a12.65,12.65,0,0,0,4.9-.53A5.82,5.82,0,0,0,409,289c.49-2.66-.15-5-2.41-6.64a35.85,35.85,0,0,0-4.82-2.58c-1.71-.84-3.53-1.48-5.18-2.43-4-2.33-6.24-5.75-5.59-10.52s3.51-7.47,7.83-8.78A19.29,19.29,0,0,1,412.87,259.21Z" transform="translate(-342.96 -207.25)"/><path d="M524.08,262.38H511.94v-4.32h29.55v4.2H529.36v35.92h-5.28Z" transform="translate(-342.96 -207.25)"/><path d="M434.65,298.25h-5.27V262.41H417.11v-4.32H446.7v4.24H434.65Z" transform="translate(-342.96 -207.25)"/><path d="M488.79,277.07c0-4.93-.05-9.24.06-13.54,0-.55.83-1.54,1.31-1.56a33.56,33.56,0,0,1,7.16.12,6.68,6.68,0,0,1,5.9,6.93,6.94,6.94,0,0,1-5.54,7.27C494.9,276.88,492,276.81,488.79,277.07Z" transform="translate(-342.96 -207.25)" fill="#fff"/><path d="M466.54,281.38H454.69c2-6.12,3.88-12.06,5.87-18.23Z" transform="translate(-342.96 -207.25)" fill="#fff"/></svg>